o Default
v -0.5 -0.00021876036771573126 1.9998500347137451
v -0.5 -0.00016876037989277393 1.4998500347137451
v 0.5 -0.00016876037989277393 1.4998500347137451
v 0.5 -0.00021876036771573126 1.9998500347137451
v -1.5 -0.00022323121083900332 1.9998500347137451
v -0.5 -0.00016876037989277393 1.4998500347137451
v -1.5 -0.000173231223016046 1.4998500347137451
v -0.5 -0.00021876036771573126 1.9998500347137451
v 0.5 -0.00021876036771573126 1.9998500347137451
v 1.5 -0.00017267960356548429 1.4998500347137451
v 0.5 -0.00016876037989277393 1.4998500347137451
v 1.5 -0.00022267959138844162 1.9998500347137451
v -2 -0.00021575194841716439 1.4998500347137451
v -1.5 -0.00022323121083900332 1.9998500347137451
v -2 -0.00021575194841716439 1.4998500347137451
v -1.5 -0.000173231223016046 1.4998500347137451
v 1.5 -0.00022267959138844162 1.9998500347137451
v 2 -0.00016248712199740112 1.4998500347137451
v 1.5 -0.00017267960356548429 1.4998500347137451
v 2 -0.00016248712199740112 1.4998500347137451
v -2 -0.00021575194841716439 1.4998500347137451
v -1.5 0.000012598376997630112 0.49994999170303345
v -2 0.000012598376997630112 0.49994999170303345
v -1.5 -0.000173231223016046 1.4998500347137451
v -2 0.000012598376997630112 0.49994999170303345
v -1.5 0.00010359106818214059 -0.49994999170303345
v -2 0.00010359106818214059 -0.49994999170303345
v -1.5 0.000012598376997630112 0.49994999170303345
v -2 0.00010359106818214059 -0.49994999170303345
v -1.5 0.00022638094378635287 -1.4998500347137451
v -2 0.00022638094378635287 -1.4998500347137451
v -1.5 0.00010359106818214059 -0.49994999170303345
v -2 0.00022638094378635287 -1.4998500347137451
v -1.5 0.00023484333360102028 -1.9997498989105225
v -2 0.00022638094378635287 -1.4998500347137451
v -1.5 0.00022638094378635287 -1.4998500347137451
v -1.5 0.00022638094378635287 -1.4998500347137451
v -0.5 0.00023134237562771887 -1.999750018119812
v -1.5 0.00023484333360102028 -1.9997498989105225
v -0.5 0.0001813423732528463 -1.499750018119812
v -0.5 0.0001813423732528463 -1.499750018119812
v 0.5 0.00023224818869493902 -1.999750018119812
v -0.5 0.00023134237562771887 -1.999750018119812
v 0.5 0.00018224818632006645 -1.499750018119812
v 0.5 0.00018224818632006645 -1.499750018119812
v 1.5 0.00022596298367716372 -1.999750018119812
v 0.5 0.00023224818869493902 -1.999750018119812
v 1.5 0.00017596298130229115 -1.499750018119812
v 1.5 0.00017596298130229115 -1.499750018119812
v 2 0.00017643385217525065 -1.499750018119812
v 1.5 0.00022596298367716372 -1.999750018119812
v 2 0.00017643385217525065 -1.499750018119812
v 1.5 0.00007033369911368936 -0.49985000491142273
v 2 0.00017643385217525065 -1.499750018119812
v 1.5 0.00017596298130229115 -1.499750018119812
v 2 0.00007033369911368936 -0.49985000491142273
v 1.5 0.000049321526603307575 0.5000500082969666
v 2 0.00007033369911368936 -0.49985000491142273
v 1.5 0.00007033369911368936 -0.49985000491142273
v 2 0.000049321526603307575 0.5000500082969666
v 1.5 -0.00017267960356548429 1.4998500347137451
v 2 0.000049321526603307575 0.5000500082969666
v 1.5 0.000049321526603307575 0.5000500082969666
v 2 -0.00016248712199740112 1.4998500347137451
v -1.5 -0.000173231223016046 1.4998500347137451
v 1.5 0.00017596298130229115 -1.499750018119812
v -1.5 0.00022638094378635287 -1.4998500347137451
v 1.5 -0.00017267960356548429 1.4998500347137451
v 2 -0.4997735619544983 1.500249981880188
v 2 0.00022643383999820799 1.000249981880188
v 2 -0.00016248712199740112 1.4998500347137451
v 2 -0.4997735619544983 1.000249981880188
v 2 -0.4997735619544983 1.000249981880188
v 2 0.000049321526603307575 0.5000500082969666
v 2 0.00022643383999820799 1.000249981880188
v 2 -0.4997735619544983 0.5002500414848328
v 2 -0.4997735619544983 0.5002500414848328
v 2 0.00022643383999820799 0.00025001249741762877
v 2 0.000049321526603307575 0.5000500082969666
v 2 -0.4997735619544983 0.00025001249741762877
v 2 -0.4997735619544983 0.00025001249741762877
v 2 0.00007033369911368936 -0.49985000491142273
v 2 0.00022643383999820799 0.00025001249741762877
v 2 -0.4997735619544983 -0.4997499883174896
v 2 -0.4997735619544983 -0.4997499883174896
v 2 0.00022643383999820799 -0.9997499585151672
v 2 0.00007033369911368936 -0.49985000491142273
v 2 -0.4997735619544983 -0.9997499585151672
v 2 -0.4997735619544983 -0.9997499585151672
v 2 0.00017643385217525065 -1.499750018119812
v 2 0.00022643383999820799 -0.9997499585151672
v 2 -0.4997735619544983 -1.499750018119812
v 1.5 -0.4997735619544983 2.0002501010894775
v 2 -0.00016248712199740112 1.4998500347137451
v 1.5 -0.00022267959138844162 1.9998500347137451
v 2 -0.4997735619544983 1.500249981880188
v 2 -0.4997735619544983 -1.499750018119812
v 1.5 0.00022596298367716372 -1.999750018119812
v 2 0.00017643385217525065 -1.499750018119812
v 1.5 -0.4997735619544983 -1.999750018119812
v -8.881784197001252e-16 -0.4997735619544983 2.0002501010894775
v 0.5 -0.00021876036771573126 1.9998500347137451
v -8.881784197001252e-16 0.00022643383999820799 2.0002501010894775
v 0.5 -0.4997735619544983 2.0002501010894775
v -0.5 -0.4997735619544983 2.0002501010894775
v -8.881784197001252e-16 0.00022643383999820799 2.0002501010894775
v -0.5 -0.00021876036771573126 1.9998500347137451
v -8.881784197001252e-16 -0.4997735619544983 2.0002501010894775
v -1 -0.4997735619544983 2.0002501010894775
v -0.5 -0.00021876036771573126 1.9998500347137451
v -1 0.00022643383999820799 2.0002501010894775
v -0.5 -0.4997735619544983 2.0002501010894775
v -1.5 -0.4997735619544983 2.0002501010894775
v -1 0.00022643383999820799 2.0002501010894775
v -1.5 -0.00022323121083900332 1.9998500347137451
v -1 -0.4997735619544983 2.0002501010894775
v -2 -0.4997735619544983 1.500249981880188
v -1.5 -0.00022323121083900332 1.9998500347137451
v -2 -0.00021575194841716439 1.4998500347137451
v -1.5 -0.4997735619544983 2.0002501010894775
v -2 -0.4997735619544983 1.000249981880188
v -2 -0.00021575194841716439 1.4998500347137451
v -2 0.00022643383999820799 1.000249981880188
v -2 -0.4997735619544983 1.500249981880188
v -2 -0.4997735619544983 0.5002500414848328
v -2 0.00022643383999820799 1.000249981880188
v -2 0.000012598376997630112 0.49994999170303345
v -2 -0.4997735619544983 1.000249981880188
v -2 -0.4997735619544983 0.00025001249741762877
v -2 0.000012598376997630112 0.49994999170303345
v -2 0.00022643383999820799 0.00025001249741762877
v -2 -0.4997735619544983 0.5002500414848328
v -2 -0.4997735619544983 -0.4997499883174896
v -2 0.00022643383999820799 0.00025001249741762877
v -2 0.00010359106818214059 -0.49994999170303345
v -2 -0.4997735619544983 0.00025001249741762877
v -2 -0.4997735917568207 -0.9997498989105225
v -2 0.00010359106818214059 -0.49994999170303345
v -2 0.00022640092356596142 -0.9997498989105225
v -2 -0.4997735619544983 -0.4997499883174896
v -2 -0.4997735917568207 -1.4997498989105225
v -2 0.00022640092356596142 -0.9997498989105225
v -2 0.00022638094378635287 -1.4998500347137451
v -2 -0.4997735917568207 -0.9997498989105225
v -0.5 -0.4997735619544983 -1.999750018119812
v -1 0.00022643383999820799 -1.999750018119812
v -0.5 0.00023134237562771887 -1.999750018119812
v -1 -0.4997735619544983 -1.999750018119812
v -8.881784197001252e-16 -0.4997735619544983 -1.999750018119812
v -0.5 0.00023134237562771887 -1.999750018119812
v -8.881784197001252e-16 0.00022643383999820799 -1.999750018119812
v -0.5 -0.4997735619544983 -1.999750018119812
v 0.5 -0.4997735619544983 -1.999750018119812
v -8.881784197001252e-16 0.00022643383999820799 -1.999750018119812
v 0.5 0.00023224818869493902 -1.999750018119812
v -8.881784197001252e-16 -0.4997735619544983 -1.999750018119812
v 1 -0.49977371096611023 -1.999750018119812
v 0.5 0.00023224818869493902 -1.999750018119812
v 1 0.00022628555598203093 -1.999750018119812
v 0.5 -0.4997735619544983 -1.999750018119812
v 1.5 -0.4997735619544983 -1.999750018119812
v 1 0.00022628555598203093 -1.999750018119812
v 1.5 0.00022596298367716372 -1.999750018119812
v 1 -0.49977371096611023 -1.999750018119812
v -2 -0.4997735619544983 1.500249981880188
v 1.5 -0.4997735619544983 2.0002501010894775
v -1.5 -0.4997735619544983 2.0002501010894775
v 2 -0.4997735619544983 1.500249981880188
v -2 -0.4997735917568207 -1.4997498989105225
v 2 -0.4997735619544983 1.500249981880188
v -2 -0.4997735619544983 1.500249981880188
v 2 -0.4997735619544983 -1.499750018119812
v -1.5 -0.4998513460159302 -1.999750018119812
v 2 -0.4997735619544983 -1.499750018119812
v -2 -0.4997735917568207 -1.4997498989105225
v 1.5 -0.4997735619544983 -1.999750018119812
v -1 -0.4997735619544983 -1.999750018119812
v -1.5 0.00023484333360102028 -1.9997498989105225
v -1 0.00022643383999820799 -1.999750018119812
v -1.5 -0.4998513460159302 -1.999750018119812
v -1.5 -0.4998513460159302 -1.999750018119812
v -2 0.00022638094378635287 -1.4998500347137451
v -1.5 0.00023484333360102028 -1.9997498989105225
v -2 -0.4997735917568207 -1.4997498989105225
v 0.5 -0.4997735619544983 2.0002501010894775
v 1 0.0001486604887759313 2.0002501010894775
v 0.5 -0.00021876036771573126 1.9998500347137451
v 1 -0.4998513460159302 2.0002501010894775
v 1 -0.4998513460159302 2.0002501010894775
v 1.5 -0.00022267959138844162 1.9998500347137451
v 1 0.0001486604887759313 2.0002501010894775
v 1.5 -0.4997735619544983 2.0002501010894775
v -1.5 0.00023484333360102028 -1.9997498989105225
v -0.5 1.0001486539840698 -1.999750018119812
v -1.5 1.0001486539840698 -1.999750018119812
v -0.5 0.00023134237562771887 -1.999750018119812
v -0.5 0.00023134237562771887 -1.999750018119812
v 0.5 1.0001486539840698 -1.999750018119812
v -0.5 1.0001486539840698 -1.999750018119812
v 0.5 0.00023224818869493902 -1.999750018119812
v 0.5 0.00023224818869493902 -1.999750018119812
v 1.5 1.0001486539840698 -1.999750018119812
v 0.5 1.0001486539840698 -1.999750018119812
v 1.5 0.00022596298367716372 -1.999750018119812
v 2 0.00017643385217525065 -1.499750018119812
v 2 1.0001486539840698 -0.4997499883174896
v 2 1.0001486539840698 -1.499750018119812
v 2 0.00007033369911368936 -0.49985000491142273
v 2 0.00007033369911368936 -0.49985000491142273
v 2 1.0001486539840698 0.5002500414848328
v 2 1.0001486539840698 -0.4997499883174896
v 2 0.000049321526603307575 0.5000500082969666
v 2 0.000049321526603307575 0.5000500082969666
v 2 1.0001486539840698 1.500249981880188
v 2 1.0001486539840698 0.5002500414848328
v 2 -0.00016248712199740112 1.4998500347137451
v -2 0.00010359106818214059 -0.49994999170303345
v -2 1.0001486539840698 -1.499750018119812
v -2 1.0001486539840698 -0.4997499883174896
v -2 0.00022638094378635287 -1.4998500347137451
v -2 0.000012598376997630112 0.49994999170303345
v -2 1.0001486539840698 -0.4997499883174896
v -2 1.0001486539840698 0.5002500414848328
v -2 0.00010359106818214059 -0.49994999170303345
v -2 -0.00021575194841716439 1.4998500347137451
v -2 1.0001486539840698 0.5002500414848328
v -2 1.0001486539840698 1.500249981880188
v -2 0.000012598376997630112 0.49994999170303345
v -2 0.00022638094378635287 -1.4998500347137451
v -1.75 1.0001486539840698 -1.749750018119812
v -2 1.0001486539840698 -1.499750018119812
v -1.75 0.0001486604887759313 -1.749750018119812
v -1.75 0.0001486604887759313 -1.749750018119812
v -1.5 1.0001486539840698 -1.999750018119812
v -1.75 1.0001486539840698 -1.749750018119812
v -1.5 0.00023484333360102028 -1.9997498989105225
v 1.5 0.00022596298367716372 -1.999750018119812
v 1.75 1.0001486539840698 -1.749750018119812
v 1.5 1.0001486539840698 -1.999750018119812
v 1.75 0.00014867538993712515 -1.749750018119812
v 1.75 0.00014867538993712515 -1.749750018119812
v 2 1.0001486539840698 -1.499750018119812
v 1.75 1.0001486539840698 -1.749750018119812
v 2 0.00017643385217525065 -1.499750018119812
v 2 -0.00016248712199740112 1.4998500347137451
v 1.75 1.0001486539840698 1.750249981880188
v 2 1.0001486539840698 1.500249981880188
v 1.75 0.00014867538993712515 1.750249981880188
v 1.75 0.00014867538993712515 1.750249981880188
v 1.5 1.0001486539840698 2.0002501010894775
v 1.75 1.0001486539840698 1.750249981880188
v 1.5 -0.00022267959138844162 1.9998500347137451
v -1.5 -0.00022323121083900332 1.9998500347137451
v -1.75 1.0001486539840698 1.750249981880188
v -1.5 1.0001486539840698 2.0002501010894775
v -1.75 0.00014867538993712515 1.750249981880188
v -1.75 0.00014867538993712515 1.750249981880188
v -2 1.0001486539840698 1.500249981880188
v -1.75 1.0001486539840698 1.750249981880188
v -2 -0.00021575194841716439 1.4998500347137451
v -1.75 0.00014867538993712515 1.750249981880188
v -1.5 1.0001486539840698 2.0002501010894775
v -1.75 1.0001486539840698 1.750249981880188
v -1.5 -0.00022323121083900332 1.9998500347137451
v -2 -0.00021575194841716439 1.4998500347137451
v -1.75 1.0001486539840698 1.750249981880188
v -2 1.0001486539840698 1.500249981880188
v -1.75 0.00014867538993712515 1.750249981880188
v -2 0.000012598376997630112 0.49994999170303345
v -2 1.0001486539840698 1.500249981880188
v -2 1.0001486539840698 0.5002500414848328
v -2 -0.00021575194841716439 1.4998500347137451
v -2 0.00010359106818214059 -0.49994999170303345
v -2 1.0001486539840698 0.5002500414848328
v -2 1.0001486539840698 -0.4997499883174896
v -2 0.000012598376997630112 0.49994999170303345
v -2 0.00022638094378635287 -1.4998500347137451
v -2 1.0001486539840698 -0.4997499883174896
v -2 1.0001486539840698 -1.499750018119812
v -2 0.00010359106818214059 -0.49994999170303345
v -1.75 0.0001486604887759313 -1.749750018119812
v -2 1.0001486539840698 -1.499750018119812
v -1.75 1.0001486539840698 -1.749750018119812
v -2 0.00022638094378635287 -1.4998500347137451
v -1.5 0.00023484333360102028 -1.9997498989105225
v -1.75 1.0001486539840698 -1.749750018119812
v -1.5 1.0001486539840698 -1.999750018119812
v -1.75 0.0001486604887759313 -1.749750018119812
v -0.5 0.00023134237562771887 -1.999750018119812
v -1.5 1.0001486539840698 -1.999750018119812
v -0.5 1.0001486539840698 -1.999750018119812
v -1.5 0.00023484333360102028 -1.9997498989105225
v 0.5 0.00023224818869493902 -1.999750018119812
v -0.5 1.0001486539840698 -1.999750018119812
v 0.5 1.0001486539840698 -1.999750018119812
v -0.5 0.00023134237562771887 -1.999750018119812
v 1.5 0.00022596298367716372 -1.999750018119812
v 0.5 1.0001486539840698 -1.999750018119812
v 1.5 1.0001486539840698 -1.999750018119812
v 0.5 0.00023224818869493902 -1.999750018119812
v 1.75 0.00014867538993712515 -1.749750018119812
v 1.5 1.0001486539840698 -1.999750018119812
v 1.75 1.0001486539840698 -1.749750018119812
v 1.5 0.00022596298367716372 -1.999750018119812
v 2 0.00017643385217525065 -1.499750018119812
v 1.75 1.0001486539840698 -1.749750018119812
v 2 1.0001486539840698 -1.499750018119812
v 1.75 0.00014867538993712515 -1.749750018119812
v 2 0.00007033369911368936 -0.49985000491142273
v 2 1.0001486539840698 -1.499750018119812
v 2 1.0001486539840698 -0.4997499883174896
v 2 0.00017643385217525065 -1.499750018119812
v 2 0.000049321526603307575 0.5000500082969666
v 2 1.0001486539840698 -0.4997499883174896
v 2 1.0001486539840698 0.5002500414848328
v 2 0.00007033369911368936 -0.49985000491142273
v 2 -0.00016248712199740112 1.4998500347137451
v 2 1.0001486539840698 0.5002500414848328
v 2 1.0001486539840698 1.500249981880188
v 2 0.000049321526603307575 0.5000500082969666
v 1.75 0.00014867538993712515 1.750249981880188
v 2 1.0001486539840698 1.500249981880188
v 1.75 1.0001486539840698 1.750249981880188
v 2 -0.00016248712199740112 1.4998500347137451
v 1.5 -0.00022267959138844162 1.9998500347137451
v 1.75 1.0001486539840698 1.750249981880188
v 1.5 1.0001486539840698 2.0002501010894775
v 1.75 0.00014867538993712515 1.750249981880188
v -0.25 1.25 -1.75
v 0.25 2 -2
v -0.25 2 -2
v 0.25 1.25 -1.75
v -0.25 1 -2
v -0.25 1.25 -1.75
v -0.25 2 -2
v -0.25 1.25 -1.75
v -0.25 1 -2
v 0.25 1.25 -1.75
v -0.25 1.25 -1.75
v 0.25 1 -2
v 0.25 1 -2
v 0.25 2 -2
v 0.25 1.25 -1.75
v 0.25 1 -2
v 0.25 1 -2
v -0.25 2 -2
v 0.25 2 -2
v -0.25 1 -2
vt 0.375 0.875
vt 0.4375 0.890625
vt 0.375 0.890625
vt 0.4375 0.875
vt 0.53125 0.875
vt 0.5625 0.875
vt 0.53125 0.890625
vt 0.5625 0.890625
vt 0.59375 0.890625
vt 0.59375 0.875
vt 0.375 0.90625
vt 0.40625 0.9375
vt 0.375 0.9375
vt 0.40625 0.90625
vt 0.5 0.90625
vt 0.53125 0.921875
vt 0.5 0.921875
vt 0.53125 0.90625
vt 0.4375 0.90625
vt 0.5 0.890625
vt 0.5625 0.921875
vt 0.59375 0.921875
vt 0.5625 0.9375
vt 0.59375 0.9375
vt 0.46875 0.90625
vt 0.5 0.9375
vt 0.46875 0.9375
vt 0.40625 0.921875
vt 0.4375 0.9375
vt 0.4375 0.921875
vt 0.75 0.921875
vt 0.78125 0.9375
vt 0.75 0.9375
vt 0.78125 0.921875
vt 0.8125 0.9375
vt 0.875 0.96875
vt 0.8125 0.96875
vt 0.875 0.9375
vt 0.828125 0.96875
vt 0.828125 0.9375
vt 0.859375 0.9375
vt 0.859375 0.96875
vt 0.625 0.765625
vt 0.6875 0.8125
vt 0.625 0.8125
vt 0.6875 0.765625
vt 0 0.9296875
vt 0.015625 0.9375
vt 0 0.9375
vt 0.015625 0.9296875
vn 0 1 0.0001
vn -0.00000447 0.99999999 0.0001
vn 0.00000392 0.99999999 0.0001
vn 0 0 0
vn -0.00008504 0.99999999 0.0001
vn -0.00002038 0.99999999 0.0001
vn 0 0.99999997 0.00022837
vn -0.00008504 0.99999998 0.00018585
vn 0 1 0.000091
vn 0 0.99999999 0.0001228
vn 0 1 0.00001693
vn 0.0000035 1 0.00001693
vn 0.00004503 0.99999999 0.0001
vn -9.1e-7 0.99999999 0.0001
vn 0.00000629 0.99999999 0.0001
vn -9.4e-7 0.99999999 0.0001
vn -9.4e-7 0.99999999 0.00010564
vn 0 0.99999999 0.00010611
vn 0 1 0.00002101
vn 0 0.99999998 0.00022205
vn -0.00002038 0.99999998 0.00021185
vn 0.0000168 0.99999999 0.00013322
vn -1.8e-7 0.99999999 0.00011623
vn 1 0 0
vn 0.70710663 0.00056629 0.7071067
vn 0.70710675 0.00056605 0.70710658
vn 0.70710678 0 -0.70710678
vn 0.00080013 0 0.99999968
vn 0 0.00080085 0.99999968
vn -0.00080085 0.00080085 0.99999936
vn 0 0 1
vn -0.70710666 0.00056611 0.70710667
vn -0.70710675 0.00056629 0.70710658
vn -1 0 0
vn 0 0 -1
vn 0 -1 0
vn 0 -1 1e-8
vn 1e-8 -1 0
vn 1e-8 -0.99999999 0.00015552
vn 0.00002593 -1 -0.00002593
vn -2.4e-7 0 -1
vn 0 2.4e-7 -1
vn -0.70703596 1.7e-7 -0.70717759
vn -0.70710687 -0.00014161 -0.70710668
vn -0.00080072 0.00080085 0.99999936
vn -1.2e-7 0.00080085 0.99999968
vn 0 1.2e-7 1
vn 1.2e-7 0 1
vn 0.70710678 -0.00007073 0.70710678
vn 0.70696529 0 0.70724824
vn 0.70710678 0 0.70710678
vn 0.70710661 8e-8 0.70710695
vn -0.70710678 0 0.70710678
vn -0.70710675 0.00028272 -0.70710675
vn -0.70767171 0 -0.7065414
vn -0.70710695 0 -0.70710661
vn -0.70654067 0.00028301 -0.70767238
vn 0.70710692 0.00028278 -0.70710658
vn 0.70654049 0 -0.70767262
vn 0.70767148 0.00028248 -0.70654157
vn -0.70710695 0 0.70710661
vn -0.70654067 -0.00028301 0.70767238
vn -0.70710675 -0.0002827 0.70710675
vn -0.70767171 0 0.7065414
vn -0.70710678 0 -0.70710678
vn -0.70696528 0.00007074 -0.70724825
vn -0.70710678 -8e-8 -0.70710678
vn -0.70710661 0 -0.70710695
vn -1.2e-7 -1.2e-7 -1
vn 0.70767151 -0.00028249 0.70654154
vn 0.70710692 -0.00028278 0.70710658
vn 0.70654049 0 0.70767262
vn 0 0.31622777 0.9486833
vn 0 -0.70710678 0.70710678
g Scene
usemtl 0
f 1/1/1 3/2/1 2/3/1
f 1/1/1 4/4/1 3/2/1
f 5/1/2 6/2/2 7/3/2
f 5/1/2 8/4/2 6/2/2
f 9/1/3 10/2/3 11/3/3
f 9/1/3 12/4/3 10/2/3
f 13/5/4 14/6/4 15/7/4
f 14/6/5 16/8/5 15/7/5
f 17/6/6 18/9/6 19/8/6
f 17/6/4 20/10/4 18/9/4
f 21/11/7 22/12/7 23/13/7
f 21/11/8 24/14/8 22/12/8
f 25/11/9 26/12/9 27/13/9
f 25/11/9 28/14/9 26/12/9
f 29/11/10 30/12/10 31/13/10
f 29/11/10 32/14/10 30/12/10
f 33/15/4 34/16/4 35/17/4
f 33/15/11 36/18/11 34/16/11
f 37/2/12 38/15/12 39/19/12
f 37/2/13 40/20/13 38/15/13
f 41/2/14 42/15/14 43/19/14
f 41/2/14 44/20/14 42/15/14
f 45/2/15 46/15/15 47/19/15
f 45/2/15 48/20/15 46/15/15
f 49/21/16 50/22/16 51/23/16
f 50/22/4 52/24/4 51/23/4
f 53/25/17 54/26/17 55/27/17
f 53/25/18 56/15/18 54/26/18
f 57/25/19 58/26/19 59/27/19
f 57/25/19 60/15/19 58/26/19
f 61/25/20 62/26/20 63/27/20
f 61/25/21 64/15/21 62/26/21
f 65/28/22 66/29/22 67/12/22
f 65/28/23 68/30/23 66/29/23
f 69/31/24 70/32/24 71/33/24
f 69/31/24 72/34/24 70/32/24
f 73/31/24 74/32/24 75/33/24
f 73/31/24 76/34/24 74/32/24
f 77/31/24 78/32/24 79/33/24
f 77/31/24 80/34/24 78/32/24
f 81/31/24 82/32/24 83/33/24
f 81/31/24 84/34/24 82/32/24
f 85/31/24 86/32/24 87/33/24
f 85/31/24 88/34/24 86/32/24
f 89/31/24 90/32/24 91/33/24
f 89/31/24 92/34/24 90/32/24
f 93/31/25 94/32/25 95/33/25
f 93/31/26 96/34/26 94/32/26
f 97/31/27 98/32/27 99/33/27
f 97/31/27 100/34/27 98/32/27
f 101/31/28 102/32/28 103/33/28
f 101/31/29 104/34/29 102/32/29
f 105/31/30 106/32/30 107/33/30
f 105/31/31 108/34/31 106/32/31
f 109/31/28 110/32/28 111/33/28
f 109/31/29 112/34/29 110/32/29
f 113/31/30 114/32/30 115/33/30
f 113/31/31 116/34/31 114/32/31
f 117/31/32 118/32/32 119/33/32
f 117/31/33 120/34/33 118/32/33
f 121/31/34 122/32/34 123/33/34
f 121/31/34 124/34/34 122/32/34
f 125/31/34 126/32/34 127/33/34
f 125/31/34 128/34/34 126/32/34
f 129/31/34 130/32/34 131/33/34
f 129/31/34 132/34/34 130/32/34
f 133/31/34 134/32/34 135/33/34
f 133/31/34 136/34/34 134/32/34
f 137/31/34 138/32/34 139/33/34
f 137/31/34 140/34/34 138/32/34
f 141/31/34 142/32/34 143/33/34
f 141/31/34 144/34/34 142/32/34
f 145/31/35 146/32/35 147/33/35
f 145/31/35 148/34/35 146/32/35
f 149/31/35 150/32/35 151/33/35
f 149/31/35 152/34/35 150/32/35
f 153/31/35 154/32/35 155/33/35
f 153/31/35 156/34/35 154/32/35
f 157/31/35 158/32/35 159/33/35
f 157/31/35 160/34/35 158/32/35
f 161/31/35 162/32/35 163/33/35
f 161/31/35 164/34/35 162/32/35
f 165/28/36 166/29/36 167/12/36
f 165/28/36 168/30/36 166/29/36
f 169/28/37 170/29/37 171/12/37
f 169/28/38 172/30/38 170/29/38
f 173/28/39 174/29/39 175/12/39
f 173/28/40 176/30/40 174/29/40
f 177/31/41 178/32/41 179/33/41
f 177/31/42 180/34/42 178/32/42
f 181/31/43 182/32/43 183/33/43
f 181/31/44 184/34/44 182/32/44
f 185/31/45 186/32/45 187/33/45
f 185/31/31 188/34/31 186/32/31
f 189/31/28 190/32/28 191/33/28
f 189/31/46 192/34/46 190/32/46
f 193/35/47 194/36/47 195/37/47
f 193/35/48 196/38/48 194/36/48
f 197/35/31 198/36/31 199/37/31
f 197/35/31 200/38/31 198/36/31
f 201/35/31 202/36/31 203/37/31
f 201/35/31 204/38/31 202/36/31
f 205/35/34 206/36/34 207/37/34
f 205/35/34 208/38/34 206/36/34
f 209/35/34 210/36/34 211/37/34
f 209/35/34 212/38/34 210/36/34
f 213/35/34 214/36/34 215/37/34
f 213/35/34 216/38/34 214/36/34
f 217/35/24 218/36/24 219/37/24
f 217/35/24 220/38/24 218/36/24
f 221/35/24 222/36/24 223/37/24
f 221/35/24 224/38/24 222/36/24
f 225/35/24 226/36/24 227/37/24
f 225/35/24 228/38/24 226/36/24
f 229/35/49 230/39/49 231/37/49
f 229/35/50 232/40/50 230/39/50
f 233/41/51 234/36/51 235/42/51
f 233/41/52 236/38/52 234/36/52
f 237/35/53 238/39/53 239/37/53
f 237/35/53 240/40/53 238/39/53
f 241/41/53 242/36/53 243/42/53
f 241/41/53 244/38/53 242/36/53
f 245/35/54 246/39/54 247/37/54
f 245/35/55 248/40/55 246/39/55
f 249/41/56 250/36/56 251/42/56
f 249/41/57 252/38/57 250/36/57
f 253/35/58 254/39/58 255/37/58
f 253/35/59 256/40/59 254/39/59
f 257/41/27 258/36/27 259/42/27
f 257/41/60 260/38/60 258/36/60
f 261/41/61 262/36/61 263/42/61
f 261/41/62 264/38/62 262/36/62
f 265/35/63 266/39/63 267/37/63
f 265/35/64 268/40/64 266/39/64
f 269/35/34 270/36/34 271/37/34
f 269/35/34 272/38/34 270/36/34
f 273/35/34 274/36/34 275/37/34
f 273/35/34 276/38/34 274/36/34
f 277/35/34 278/36/34 279/37/34
f 277/35/34 280/38/34 278/36/34
f 281/41/65 282/36/65 283/42/65
f 281/41/66 284/38/66 282/36/66
f 285/35/67 286/39/67 287/37/67
f 285/35/68 288/40/68 286/39/68
f 289/35/35 290/36/35 291/37/35
f 289/35/69 292/38/69 290/36/69
f 293/35/35 294/36/35 295/37/35
f 293/35/35 296/38/35 294/36/35
f 297/35/35 298/36/35 299/37/35
f 297/35/35 300/38/35 298/36/35
f 301/41/27 302/36/27 303/42/27
f 301/41/27 304/38/27 302/36/27
f 305/35/27 306/39/27 307/37/27
f 305/35/27 308/40/27 306/39/27
f 309/35/24 310/36/24 311/37/24
f 309/35/24 312/38/24 310/36/24
f 313/35/24 314/36/24 315/37/24
f 313/35/24 316/38/24 314/36/24
f 317/35/24 318/36/24 319/37/24
f 317/35/24 320/38/24 318/36/24
f 321/41/51 322/36/51 323/42/51
f 321/41/70 324/38/70 322/36/70
f 325/35/71 326/39/71 327/37/71
f 325/35/72 328/40/72 326/39/72
f 329/43/73 330/44/73 331/45/73
f 329/43/73 332/46/73 330/44/73
f 333/47/34 334/48/34 335/49/34
f 333/47/4 336/50/4 334/48/4
f 337/47/74 338/48/74 339/49/74
f 337/47/74 340/50/74 338/48/74
f 341/47/24 342/48/24 343/49/24
f 341/47/4 344/50/4 342/48/4
f 345/47/35 346/48/35 347/49/35
f 345/47/35 348/50/35 346/48/35
