o Default
v -0.75 1.5 0.2499999701976776
v -0.75 1.5 -0.25
v 0.75 1.49996018409729 -0.24994999170303345
v 0.75 1.4999101161956787 0.25005003809928894
v -0.75 -1.5000253915786743 0.25
v 0.75 -0.5 0.25
v -0.75 -0.5 0.25
v 0.75 -1.5 0.25
v 0.75 -0.5 0.25
v 1 0.25 0.25
v 0.75 0.5 0.25
v 1 -0.25 0.25
v 1 -0.25 -0.25
v 0.75 0.5 -0.25
v 1 0.25 -0.25
v 0.75 -0.5 -0.25
v 0.75 -1.5 0.25
v 0.75 -0.5 -0.25
v 0.75 -0.5 0.25
v 0.75 -1.5 -0.25
v 0.75 0.5 0.25
v 0.75 1.49996018409729 -0.24994999170303345
v 0.75 1.4999101161956787 0.25005003809928894
v 0.75 0.5 -0.25
v 1 -0.25 0.25
v 1 0.25 -0.25
v 1 0.25 0.25
v 1 -0.25 -0.25
v 1 0.25 0.25
v 0.75 0.5 -0.25
v 0.75 0.5 0.25
v 1 0.25 -0.25
v 0.75 -0.5 0.25
v 1 -0.25 -0.25
v 1 -0.25 0.25
v 0.75 -0.5 -0.25
v -0.75 -1.500075340270996 -0.25
v 0.75 -1.5 0.25
v -0.75 -1.5000253915786743 0.25
v 0.75 -1.5 -0.25
v -0.75 -1.500075340270996 -0.25
v -0.75 1.5 0.2499999701976776
v -0.75 1.5 -0.25
v -0.75 -1.5000253915786743 0.25
v 0.75 -1.5 -0.25
v -0.75 -0.5 -0.25
v 0.75 -0.5 -0.25
v -0.75 -1.500075340270996 -0.25
v -0.75 0.5 0.25
v 0.75 1.4999101161956787 0.25005003809928894
v -0.75 1.5 0.2499999701976776
v 0.75 0.5 0.25
v -0.75 -0.5 0.25
v 0.75 0.5 0.25
v -0.75 0.5 0.25
v 0.75 -0.5 0.25
v 0.75 0.5 -0.25
v -0.75 1.5 -0.25
v 0.75 1.49996018409729 -0.24994999170303345
v -0.75 0.5 -0.25
v 0.75 -0.5 -0.25
v -0.75 0.5 -0.25
v 0.75 0.5 -0.25
v -0.75 -0.5 -0.25
vt 0 0.921875
vt 0.03125 0.9375
vt 0 0.9375
vt 0.03125 0.921875
vt 0.375 0.78125
vt 0.46875 0.8125
vt 0.375 0.8125
vt 0.46875 0.78125
vt 0.484375 0.8359375
vt 0.46875 0.84375
vt 0.484375 0.8203125
vt 0.515625 0.7265625
vt 0.53125 0.75
vt 0.515625 0.7421875
vt 0.53125 0.71875
vt 0 0.90625
vt 0.03125 0.90625
vt 0 0.9296875
vt 0.03125 0.9296875
vt 0.53125 0.6875
vt 0.625 0.71875
vt 0.625 0.6875
vt 0.375 0.84375
vt 0.46875 0.875
vt 0.375 0.875
vt 0.8125 0.6875
vt 0.90625 0.71875
vt 0.8125 0.71875
vt 0.90625 0.6875
vt 0.625 0.78125
vt 0.53125 0.78125
vt 0.625 0.75
vt 0.90625 0.65625
vt 1 0.6875
vt 1 0.65625
vn 0.00002654 1 0
vn 0.00005992 0.99999999 0.00010014
vn 0 0 1
vn 0 0 -1
vn 1 0 0
vn 0.70710678 0.70710678 0
vn 0.70710678 -0.70710678 0
vn 0.00001693 -0.99999999 0.0000999
vn 0.00005023 -1 0
vn -1 0 0
vn -0.00003338 3e-8 1
vn 0 -0.00005004 1
vn 0.00003334 0.00005001 -1
g Scene
usemtl 0
f 1/1/1 3/2/1 2/3/1
f 1/1/2 4/4/2 3/2/2
f 5/5/3 6/6/3 7/7/3
f 5/5/3 8/8/3 6/6/3
f 9/6/3 10/9/3 11/10/3
f 9/6/3 12/11/3 10/9/3
f 13/12/4 14/13/4 15/14/4
f 13/12/4 16/15/4 14/13/4
f 17/16/5 18/2/5 19/3/5
f 17/16/5 20/17/5 18/2/5
f 21/16/5 22/2/5 23/3/5
f 21/16/5 24/17/5 22/2/5
f 25/1/5 26/2/5 27/3/5
f 25/1/5 28/4/5 26/2/5
f 29/18/6 30/2/6 31/3/6
f 29/18/6 32/19/6 30/2/6
f 33/18/7 34/2/7 35/3/7
f 33/18/7 36/19/7 34/2/7
f 37/1/8 38/2/8 39/3/8
f 37/1/9 40/4/9 38/2/9
f 41/1/10 42/2/10 43/3/10
f 41/1/10 44/4/10 42/2/10
f 45/20/4 46/21/4 47/15/4
f 45/20/4 48/22/4 46/21/4
f 49/23/11 50/24/11 51/25/11
f 49/23/12 52/10/12 50/24/12
f 53/26/3 54/27/3 55/28/3
f 53/26/3 56/29/3 54/27/3
f 57/13/13 58/30/13 59/31/13
f 57/13/4 60/32/4 58/30/4
f 61/33/4 62/34/4 63/29/4
f 61/33/4 64/35/4 62/34/4
