o Default
v -0.75 -1.5000338554382324 -0.24995000660419464
v -0.75 -1.499983787536621 0.25005000829696655
v 0.75 -1.499983787536621 0.25005000829696655
v 0.75 -1.5000338554382324 -0.24995000660419464
v -0.75 1.499998688697815 0.2500999867916107
v 0.75 1.5000487565994263 -0.2498999983072281
v -0.75 1.5000487565994263 -0.2498999983072281
v 0.75 1.499998688697815 0.2500999867916107
v -0.75 0.49999868869781494 -0.2498999983072281
v -0.75 1.499998688697815 0.2500999867916107
v -0.75 1.5000487565994263 -0.2498999983072281
v -0.75 0.49999868869781494 0.2500999867916107
v -0.75 -1.5000338554382324 -0.24995000660419464
v -0.75 -0.5000013113021851 0.2500999867916107
v -0.75 -0.5000013113021851 -0.2498999983072281
v -0.75 -1.499983787536621 0.25005000829696655
v -0.5 -0.25000131130218506 -0.2498999983072281
v -0.5 0.24999868869781494 0.2500999867916107
v -0.5 0.24999868869781494 -0.2498999983072281
v -0.5 -0.25000131130218506 0.2500999867916107
v -0.5 0.24999868869781494 -0.2498999983072281
v -0.75 0.49999868869781494 0.2500999867916107
v -0.75 0.49999868869781494 -0.2498999983072281
v -0.5 0.24999868869781494 0.2500999867916107
v -0.75 -0.5000013113021851 -0.2498999983072281
v -0.5 -0.25000131130218506 0.2500999867916107
v -0.5 -0.25000131130218506 -0.2498999983072281
v -0.75 -0.5000013113021851 0.2500999867916107
v -0.5 -1.5000001192092896 0.25
v 0.25 -0.5 0.25
v -0.5 -0.5 0.25
v 0.25 -1.5 0.25
v -0.5 0.24999868869781494 -0.2498999983072281
v -0.75 1.5000487565994263 -0.2498999983072281
v -0.5 1.5 -0.25
v -0.75 0.49999868869781494 -0.2498999983072281
v -0.5 -1.5 -0.25
v -0.75 -0.5000013113021851 -0.2498999983072281
v -0.5 -0.25000131130218506 -0.2498999983072281
v -0.75 -1.5000338554382324 -0.24995000660419464
v -0.75 0.49999868869781494 0.2500999867916107
v -0.5 1.5 0.25
v -0.75 1.499998688697815 0.2500999867916107
v -0.5 0.24999868869781494 0.2500999867916107
v -0.75 -1.499983787536621 0.25005000829696655
v -0.5 -0.25000131130218506 0.2500999867916107
v -0.75 -0.5000013113021851 0.2500999867916107
v -0.5 -1.5000001192092896 0.25
v -0.5 -0.5 0.25
v 0.25 0.5 0.25
v -0.5 0.5 0.25
v 0.25 -0.5 0.25
v 0.25 -1.5 0.25
v 0.75 1.499998688697815 0.2500999867916107
v 0.25 1.5 0.25
v 0.75 -1.499983787536621 0.25005000829696655
v -0.5 0.5 0.25
v 0.25 1.5 0.25
v -0.5 1.5 0.25
v 0.25 0.5 0.25
v 0.25 -0.5000013113021851 -0.2498999983072281
v -0.5 0.49999868869781494 -0.2498999983072281
v 0.25 0.49999868869781494 -0.2498999983072281
v -0.5 -0.5000013113021851 -0.2498999983072281
v 0.75 -1.5000338554382324 -0.24995000660419464
v 0.25 1.499998688697815 -0.2498999983072281
v 0.75 1.5000487565994263 -0.2498999983072281
v 0.25 -1.500001311302185 -0.2498999983072281
v 0.25 0.49999868869781494 -0.2498999983072281
v -0.5 1.5 -0.25
v 0.25 1.499998688697815 -0.2498999983072281
v -0.5 0.49999868869781494 -0.2498999983072281
v 0.25 -1.500001311302185 -0.2498999983072281
v -0.5 -0.5000013113021851 -0.2498999983072281
v 0.25 -0.5000013113021851 -0.2498999983072281
v -0.5 -1.5 -0.25
vt 0 0.921875
vt 0.0625 0.9375
vt 0 0.9375
vt 0.0625 0.921875
vt 0 0.90625
vt 0.03125 0.9375
vt 0.03125 0.90625
vt 0.03125 0.921875
vt 0 0.9296875
vt 0.03125 0.9296875
vt 0.515625 0.78125
vt 0.5625 0.8125
vt 0.515625 0.8125
vt 0.5625 0.78125
vt 0.484375 0.7421875
vt 0.5 0.78125
vt 0.484375 0.78125
vt 0.5 0.75
vt 0.484375 0.6875
vt 0.5 0.71875
vt 0.484375 0.7265625
vt 0.5 0.6875
vt 0.5 0.84375
vt 0.515625 0.875
vt 0.5 0.875
vt 0.515625 0.8359375
vt 0.515625 0.8203125
vt 0.5 0.8125
vt 0.765625 0.6875
vt 0.8125 0.71875
vt 0.765625 0.71875
vt 0.8125 0.6875
vt 0.59375 0.875
vt 0.5625 0.875
vt 0.59375 0.78125
vt 0.515625 0.84375
vt 0.5625 0.84375
vt 0.625 0.65625
vt 0.671875 0.6875
vt 0.625 0.6875
vt 0.671875 0.65625
vt 0.40625 0.6875
vt 0.4375 0.78125
vt 0.40625 0.78125
vt 0.4375 0.6875
vt 0.4375 0.75
vt 0.484375 0.75
vt 0.484375 0.71875
vt 0.4375 0.71875
vn 0 -0.99999999 0.00010014
vn 0 0.99999999 0.00010014
vn -1 0 0
vn -0.70710678 -0.70710678 0
vn -0.70710678 0.70710678 0
vn 0 0 1
vn -0.00040002 -0.00008 -0.99999992
vn 0 0 -1
vn -0.00008 0.00008 -0.99999999
vn -0.00019998 0.00005001 -0.99999998
vn 0.00039995 0 0.99999992
vn 0.00007999 0.00007999 0.99999999
vn 0.00004998 -0.00004998 1
vn 0.00020003 -0.00007999 0.99999998
vn -0.00019997 0 0.99999998
vn -0.00010002 -0.00001666 0.99999999
vn 0 0.00001667 -1
vn -0.00010002 0 -0.99999999
vn 0.00013334 0 -0.99999999
vn 0 -0.0001 -0.99999999
vn 0.00013334 0.0001 -0.99999999
g Scene
usemtl 0
f 1/1/1 3/2/1 2/3/1
f 1/1/1 4/4/1 3/2/1
f 5/1/2 6/2/2 7/3/2
f 5/1/2 8/4/2 6/2/2
f 9/5/3 10/6/3 11/3/3
f 9/5/3 12/7/3 10/6/3
f 13/5/3 14/6/3 15/3/3
f 13/5/3 16/7/3 14/6/3
f 17/1/3 18/6/3 19/3/3
f 17/1/3 20/8/3 18/6/3
f 21/9/4 22/6/4 23/3/4
f 21/9/4 24/10/4 22/6/4
f 25/9/5 26/6/5 27/3/5
f 25/9/5 28/10/5 26/6/5
f 29/11/6 30/12/6 31/13/6
f 29/11/6 32/14/6 30/12/6
f 33/15/7 34/16/7 35/17/7
f 33/15/8 36/18/8 34/16/8
f 37/19/9 38/20/9 39/21/9
f 37/19/10 40/22/10 38/20/10
f 41/23/11 42/24/11 43/25/11
f 41/23/12 44/26/12 42/24/12
f 45/16/13 46/27/13 47/28/13
f 45/16/14 48/11/14 46/27/14
f 49/29/6 50/30/6 51/31/6
f 49/29/6 52/32/6 50/30/6
f 53/14/15 54/33/15 55/34/15
f 53/14/16 56/35/16 54/33/16
f 57/36/6 58/34/6 59/24/6
f 57/36/6 60/37/6 58/34/6
f 61/38/8 62/39/8 63/40/8
f 61/38/8 64/41/8 62/39/8
f 65/42/17 66/43/17 67/44/17
f 65/42/18 68/45/18 66/43/18
f 69/46/19 70/17/19 71/43/19
f 69/46/20 72/47/20 70/17/20
f 73/45/8 74/48/8 75/49/8
f 73/45/21 76/19/21 74/48/21
