o Default
v -1.5 0 0.25
v -1.5 2.5 0.25
v 1.5 2.5 0.25
v 1.5 0 0.25
v -1.5 0 -0.25
v -1.5 2.5 0.25
v -1.5 2.5 -0.25
v -1.5 0 0.25
v -1.5 2.5 0.25
v 1 3 0.25
v -1 3 0.25
v 1.5 2.5 0.25
v -1.5 2.5 -0.25
v -1 3 0.25
v -1 3 -0.25
v -1.5 2.5 0.25
v -1 3 0.25
v 1 3 -0.25
v -1 3 -0.25
v 1 3 0.25
v 1 3 0.25
v 1.5 2.5 -0.25
v 1 3 -0.25
v 1.5 2.5 0.25
v 1.5 0 0.25
v 1.5 2.5 -0.25
v 1.5 2.5 0.25
v 1.5 0 -0.25
v -1 3 -0.25
v 1 3 -0.25
v -1.5 2.5 -0.25
v 1.5 2.5 -0.25
v -1.5 2.5 -0.25
v 1.5 2.5 -0.25
v -1.5 0 -0.25
v 1.5 0 -0.25
vt 0 0
vt 0.6000000238418579 0.8333333134651184
vt 0 0.8333333134651184
vt 0.6000000238418579 0
vt 0.8999999761581421 0.6666666865348816
vt 1 1
vt 0.8999999761581421 1
vt 1 0.6666666865348816
vt 0.5 1
vt 0.10000000149011612 1
vt 0.8999999761581421 0.8333333134651184
vt 1 0.8333333134651184
vn 0 0 1
vn -1 0 0
vn -0.70710678 0.70710678 0
vn 0 1 0
vn 0.70710678 0.70710678 0
vn 1 0 0
vn 0 0 -1
g Scene
usemtl 0
f 1/1/1 3/2/1 2/3/1
f 1/1/1 4/4/1 3/2/1
f 5/5/2 6/6/2 7/7/2
f 5/5/2 8/8/2 6/6/2
f 9/3/1 10/9/1 11/10/1
f 9/3/1 12/2/1 10/9/1
f 13/11/3 14/6/3 15/7/3
f 13/11/3 16/12/3 14/6/3
f 17/11/4 18/6/4 19/7/4
f 17/11/4 20/12/4 18/6/4
f 21/11/5 22/6/5 23/7/5
f 21/11/5 24/12/5 22/6/5
f 25/11/6 26/6/6 27/7/6
f 25/11/6 28/12/6 26/6/6
f 29/10/7 30/9/7 31/3/7
f 30/9/7 32/2/7 31/3/7
f 33/3/7 34/2/7 35/1/7
f 34/2/7 36/4/7 35/1/7
