o Default
v -0.5 0 -0.25
v -0.5 2 -0.25
v -1.5 2 -0.25
v -1.5 0 -0.25
v -1.5 0 -0.25
v -1.5 2.5 0.25
v -1.5 2.5 -0.25
v -1.5 0 0.25
v 0.5 0 -0.25
v -0.5 1 -0.25
v 0.5 1 -0.25
v -0.5 0 -0.25
v -1.5 2.5 -0.25
v -1 3 0.25
v -1 3 -0.25
v -1.5 2.5 0.25
v -1 3 0.25
v 1 3 -0.25
v -1 3 -0.25
v 1 3 0.25
v 1 3 0.25
v 1.5 2.5 -0.25
v 1 3 -0.25
v 1.5 2.5 0.25
v 1.5 0 0.25
v 1.5 2.5 -0.25
v 1.5 2.5 0.25
v 1.5 0 -0.25
v -1 3 -0.25
v 1 3 -0.25
v -1.5 2.5 -0.25
v 1.5 2.5 -0.25
v 1.5 2 -0.25
v -1.5 2.5 -0.25
v 1.5 2.5 -0.25
v -1.5 2 -0.25
v -0.5 2 0.25
v -1.5 2 0.25
v -0.5 0 0.25
v -1.5 0 0.25
v 1.5 0 -0.25
v 0.5 2 -0.25
v 1.5 2 -0.25
v 0.5 0 -0.25
v -1.5 2.5 0.25
v 1 3 0.25
v -1 3 0.25
v 1.5 2.5 0.25
v 1.5 2.5 0.25
v -1.5 2.5 0.25
v 1.5 2 0.25
v -1.5 2 0.25
v 1.5 2 0.25
v 0.5 2 0.25
v 1.5 0 0.25
v 0.5 0 0.25
v 0.5 1 0.25
v -0.5 1 0.25
v 0.5 0 0.25
v -0.5 0 0.25
v -0.5 1 0.25
v 0.5 2 0.25
v -0.5 2 0.25
v 0.5 1 0.25
v 0.5 1 -0.25
v -0.5 2 -0.25
v 0.5 2 -0.25
v -0.5 1 -0.25
vt 0.4000000059604645 0
vt 0.6000000238418579 0.6666666865348816
vt 0.4000000059604645 0.6666666865348816
vt 0.6000000238418579 0
vt 0.8999999761581421 0.6666666865348816
vt 1 1
vt 0.8999999761581421 1
vt 1 0.6666666865348816
vt 0.20000000298023224 0
vt 0.4000000059604645 0.3333333432674408
vt 0.20000000298023224 0.3333333432674408
vt 0.8999999761581421 0.8333333134651184
vt 1 0.8333333134651184
vt 0.10000000149011612 1
vt 0.5 1
vt 0 0.8333333134651184
vt 0.6000000238418579 0.8333333134651184
vt 0 0.6666666865348816
vt 0 0
vt 0.20000000298023224 0.6666666865348816
vt 0.800000011920929 0.3333333432674408
vt 0.6000000238418579 0.3333333432674408
vt 0.800000011920929 0
vn 0 0 -1
vn -1 0 0
vn -0.70710678 0.70710678 0
vn 0 1 0
vn 0.70710678 0.70710678 0
vn 1 0 0
vn 0 0 1
g Scene
usemtl 0
f 1/1/1 3/2/1 2/3/1
f 1/1/1 4/4/1 3/2/1
f 5/5/2 6/6/2 7/7/2
f 5/5/2 8/8/2 6/6/2
f 9/9/1 10/10/1 11/11/1
f 9/9/1 12/1/1 10/10/1
f 13/12/3 14/6/3 15/7/3
f 13/12/3 16/13/3 14/6/3
f 17/12/4 18/6/4 19/7/4
f 17/12/4 20/13/4 18/6/4
f 21/12/5 22/6/5 23/7/5
f 21/12/5 24/13/5 22/6/5
f 25/12/6 26/6/6 27/7/6
f 25/12/6 28/13/6 26/6/6
f 29/14/1 30/15/1 31/16/1
f 30/15/1 32/17/1 31/16/1
f 33/18/1 34/17/1 35/16/1
f 33/18/1 36/2/1 34/17/1
f 37/3/7 38/2/7 39/1/7
f 38/2/7 40/4/7 39/1/7
f 41/19/1 42/20/1 43/18/1
f 41/19/1 44/9/1 42/20/1
f 45/16/7 46/15/7 47/14/7
f 45/16/7 48/17/7 46/15/7
f 49/16/7 50/17/7 51/18/7
f 50/17/7 52/2/7 51/18/7
f 53/18/7 54/20/7 55/19/7
f 54/20/7 56/9/7 55/19/7
f 57/11/7 58/10/7 59/9/7
f 58/10/7 60/1/7 59/9/7
f 61/4/7 62/21/7 63/22/7
f 61/4/7 64/23/7 62/21/7
f 65/4/1 66/21/1 67/22/1
f 65/4/1 68/23/1 66/21/1
